<svg width="140" height="140" viewBox="0 0 140 140" fill="none" xmlns="http://www.w3.org/2000/svg">
<rect x="1.34615" y="1.34615" width="137.308" height="137.308" rx="22.6538" stroke="url(#paint0_linear)" stroke-width="2.69231"/>
<path d="M58.0029 57.5664C58.7133 48.7708 62.0163 31.1436 69.5458 31C71.8544 31 74.2695 32.3642 76.1164 36.3851" stroke="#202020" stroke-width="3.62269"/>
<path d="M68.8844 50.0948C76.7405 46.3757 93.4203 40.5428 97.2909 46.964C98.44 48.9544 98.4786 51.7086 95.9683 55.2811" stroke="#202020" stroke-width="3.62269"/>
<path d="M80.7301 56.1044C87.879 61.0484 101.27 72.5771 97.6447 79.1398C96.4955 81.1302 94.1296 82.5407 89.7806 82.1529" stroke="#202020" stroke-width="3.62269"/>
<path d="M80.9473 68.4336C80.2369 77.2292 76.9339 94.8564 69.4044 95C67.0958 95 64.6807 93.6358 62.8338 89.6149" stroke="#202020" stroke-width="3.62269"/>
<path d="M70.1527 75.9638C62.2966 79.6829 45.6169 85.5158 41.7462 79.0946C40.5971 77.1042 40.5585 74.35 43.0688 70.7775" stroke="#202020" stroke-width="3.62269"/>
<path d="M58.6605 69.9542C51.5117 65.0102 38.1203 53.4815 41.7459 46.9188C42.8951 44.9284 45.261 43.5179 49.6101 43.9057" stroke="#202020" stroke-width="3.62269"/>
<circle cx="69.8113" cy="63.6042" r="6.03782" fill="#202020"/>
<defs>
<linearGradient id="paint0_linear" x1="114.625" y1="19.25" x2="27.125" y2="122.5" gradientUnits="userSpaceOnUse">
<stop stop-color="#6F57F9"/>
<stop offset="1" stop-color="#303030" stop-opacity="0"/>
</linearGradient>
</defs>
</svg>
