<svg width="140" height="140" viewBox="0 0 140 140" fill="none" xmlns="http://www.w3.org/2000/svg">
<rect x="1.34615" y="1.34615" width="137.308" height="137.308" rx="22.6538" stroke="url(#paint0_linear)" stroke-width="2.69231"/>
<path d="M82 82.3277L89.596 103.83L92.6819 94.1028L100.99 99.2224L94.5809 79" stroke="#202020" stroke-width="3" stroke-linecap="round" stroke-linejoin="round"/>
<path d="M71.9775 32.174L77.395 27.6866L79.6113 34.363C80.0258 35.6116 81.2234 36.4295 82.5372 36.3612L89.2757 36.0111L87.2443 43.1736C86.9065 44.3646 87.3556 45.6392 88.3653 46.3555L94.0596 50.3944L88.3795 55.1576C87.466 55.9237 87.1093 57.1678 87.478 58.3016L89.7709 65.3509L82.8015 65.7587C81.5657 65.831 80.5094 66.6739 80.1647 67.863L78.0919 75.0136L72.5629 71.1458C71.4849 70.3917 70.0359 70.4507 69.0227 71.2899L63.6052 75.7773L61.3889 69.101C60.9744 67.8523 59.7768 67.0345 58.463 67.1027L51.7245 67.4529L53.7559 60.2904C54.0937 59.0994 53.6446 57.8247 52.6349 57.1085L46.9406 53.0695L52.6207 48.3064C53.5342 47.5403 53.8909 46.2962 53.5222 45.1624L51.2293 38.1131L58.1987 37.7053C59.4345 37.633 60.4908 36.79 60.8355 35.601L62.9083 28.4504L68.4373 32.3181C69.5153 33.0723 70.9644 33.0133 71.9775 32.174Z" stroke="#202020" stroke-width="3" stroke-linecap="round" stroke-linejoin="round"/>
<path d="M79.7884 45.75L68.6981 56.8403C68.1424 57.3961 67.2413 57.3961 66.6855 56.8403L62.1934 52.3481" stroke="#202020" stroke-width="3" stroke-linecap="round" stroke-linejoin="round"/>
<path d="M49.6477 79L43 99.1703L51.3096 93.9984L54.6335 103.825L61.9934 82.6203" stroke="#202020" stroke-width="3" stroke-linecap="round" stroke-linejoin="round"/>
<defs>
<linearGradient id="paint0_linear" x1="114.625" y1="19.25" x2="27.125" y2="122.5" gradientUnits="userSpaceOnUse">
<stop stop-color="#6F57F9"/>
<stop offset="1" stop-color="#303030" stop-opacity="0"/>
</linearGradient>
</defs>
</svg>
