<svg width="140" height="140" viewBox="0 0 140 140" fill="none" xmlns="http://www.w3.org/2000/svg">
<rect x="1.34615" y="1.34615" width="137.308" height="137.308" rx="22.6538" stroke="url(#paint0_linear)" stroke-width="2.69231"/>
<path d="M82 82.3277L89.596 103.83L92.6819 94.1028L100.99 99.2224L94.5809 79" stroke="#202020" stroke-width="2" stroke-linecap="round" stroke-linejoin="round"/>
<path d="M77.1626 27.2298C77.3919 27.04 77.7403 27.1399 77.8341 27.4224L80.0858 34.2055C80.4294 35.2405 81.4222 35.9185 82.5113 35.8619L89.357 35.5062C89.6466 35.4911 89.8651 35.7652 89.786 36.0442L87.7253 43.31C87.4453 44.2973 87.8176 45.3539 88.6546 45.9476L94.4301 50.0442C94.6562 50.2046 94.6696 50.5355 94.4572 50.7136L88.7008 55.5407C87.9435 56.1758 87.6478 57.2071 87.9535 58.1469L90.2772 65.2909C90.3629 65.5546 90.1762 65.828 89.8995 65.8442L82.8307 66.2578C81.8063 66.3177 80.9307 67.0165 80.645 68.0022L78.5422 75.256C78.4615 75.5345 78.1309 75.6511 77.8933 75.4849L72.2763 71.5555C71.3827 70.9304 70.1815 70.9793 69.3416 71.675L63.8376 76.2341C63.6083 76.424 63.2599 76.3241 63.1661 76.0416L60.9144 69.2585C60.5708 68.2234 59.578 67.5455 58.4889 67.6021L51.6432 67.9578C51.3536 67.9728 51.1351 67.6987 51.2142 67.4198L53.2749 60.1539C53.5549 59.1666 53.1826 58.1101 52.3456 57.5163L46.5701 53.4197C46.344 53.2594 46.3306 52.9285 46.5431 52.7504L52.2994 47.9233C53.0567 47.2882 53.3524 46.2569 53.0467 45.3171L50.723 38.173C50.6373 37.9094 50.824 37.6359 51.1007 37.6197L58.1695 37.2062C59.1939 37.1462 60.0695 36.4474 60.3553 35.4618L62.458 28.208C62.5387 27.9295 62.8693 27.8129 63.1069 27.9791L68.7239 31.9084C69.6175 32.5336 70.8187 32.4847 71.6586 31.789L77.1626 27.2298Z" stroke="#202020" stroke-width="2" stroke-linecap="round" stroke-linejoin="round"/>
<path d="M79.7884 45.75L68.6981 56.8403C68.1424 57.3961 67.2413 57.3961 66.6855 56.8403L62.1934 52.3481" stroke="#202020" stroke-width="2" stroke-linecap="round" stroke-linejoin="round"/>
<path d="M49.6477 79L43 99.1703L51.3096 93.9984L54.6335 103.825L61.9934 82.6203" stroke="#202020" stroke-width="1.69898" stroke-linecap="round" stroke-linejoin="round"/>
<defs>
<linearGradient id="paint0_linear" x1="114.625" y1="19.25" x2="27.125" y2="122.5" gradientUnits="userSpaceOnUse">
<stop stop-color="#6F57F9"/>
<stop offset="1" stop-color="#303030" stop-opacity="0"/>
</linearGradient>
</defs>
</svg>
