<svg width="245" height="56" viewBox="0 0 245 56" fill="none" xmlns="http://www.w3.org/2000/svg">
<path d="M118.808 19.88V21.752H114.08V35H111.872V21.752H107.24V19.88H118.808ZM120.991 35V23.72H123.103V35H120.991ZM122.047 20.816C121.679 20.816 121.359 20.696 121.087 20.456C120.831 20.2 120.703 19.888 120.703 19.52C120.703 19.152 120.831 18.84 121.087 18.584C121.359 18.328 121.679 18.2 122.047 18.2C122.399 18.2 122.711 18.328 122.983 18.584C123.255 18.84 123.391 19.152 123.391 19.52C123.391 19.888 123.255 20.2 122.983 20.456C122.711 20.696 122.399 20.816 122.047 20.816ZM126.682 24.728C127.066 24.536 127.426 24.368 127.762 24.224C128.098 24.064 128.434 23.936 128.77 23.84C129.106 23.744 129.45 23.672 129.802 23.624C130.154 23.576 130.538 23.552 130.954 23.552C131.578 23.552 132.146 23.624 132.658 23.768C133.186 23.896 133.634 24.12 134.002 24.44C134.386 24.76 134.682 25.184 134.89 25.712C135.098 26.224 135.202 26.872 135.202 27.656V35H133.45L133.186 33.752H133.138C132.642 34.28 132.098 34.656 131.506 34.88C130.914 35.104 130.258 35.216 129.538 35.216C128.994 35.216 128.49 35.144 128.026 35C127.578 34.84 127.186 34.624 126.85 34.352C126.514 34.064 126.25 33.72 126.058 33.32C125.882 32.92 125.794 32.472 125.794 31.976C125.794 30.792 126.258 29.896 127.186 29.288C128.13 28.664 129.37 28.352 130.906 28.352H133.066V27.392C133.066 26.576 132.858 26.024 132.442 25.736C132.026 25.432 131.466 25.28 130.762 25.28C130.346 25.28 129.866 25.352 129.322 25.496C128.794 25.624 128.186 25.88 127.498 26.264L126.682 24.728ZM133.09 29.792L131.314 29.84C130.114 29.872 129.258 30.088 128.746 30.488C128.25 30.872 128.002 31.344 128.002 31.904C128.002 32.24 128.058 32.528 128.17 32.768C128.282 32.992 128.426 33.168 128.602 33.296C128.794 33.424 129.01 33.52 129.25 33.584C129.506 33.632 129.77 33.656 130.042 33.656C130.57 33.656 131.106 33.536 131.65 33.296C132.194 33.04 132.674 32.64 133.09 32.096V29.792ZM138.136 27.464C138.136 26.84 138.248 26.288 138.472 25.808C138.696 25.312 139.008 24.896 139.408 24.56C139.824 24.224 140.312 23.976 140.872 23.816C141.432 23.64 142.04 23.552 142.696 23.552C142.936 23.552 143.168 23.568 143.392 23.6C143.616 23.632 143.84 23.672 144.064 23.72H148.936V25.28H148.192L146.272 25.016C146.576 25.336 146.808 25.704 146.968 26.12C147.144 26.536 147.232 26.976 147.232 27.44C147.232 28.064 147.12 28.624 146.896 29.12C146.672 29.6 146.36 30.008 145.96 30.344C145.56 30.68 145.08 30.936 144.52 31.112C143.96 31.272 143.352 31.352 142.696 31.352C142.2 31.352 141.768 31.32 141.4 31.256C141.032 31.384 140.776 31.552 140.632 31.76C140.488 31.952 140.416 32.16 140.416 32.384C140.416 32.752 140.536 33 140.776 33.128C141.032 33.256 141.368 33.32 141.784 33.32H144.76C146.008 33.32 146.96 33.608 147.616 34.184C148.288 34.744 148.624 35.512 148.624 36.488C148.624 37.112 148.488 37.672 148.216 38.168C147.944 38.664 147.552 39.088 147.04 39.44C146.544 39.792 145.936 40.056 145.216 40.232C144.496 40.424 143.688 40.52 142.792 40.52C141.16 40.52 139.856 40.224 138.88 39.632C137.92 39.056 137.44 38.2 137.44 37.064C137.44 36.472 137.624 35.976 137.992 35.576C138.376 35.176 138.872 34.872 139.48 34.664C139.16 34.44 138.92 34.208 138.76 33.968C138.6 33.712 138.52 33.376 138.52 32.96C138.52 32.464 138.664 32.04 138.952 31.688C139.256 31.336 139.664 31.056 140.176 30.848C139.536 30.56 139.032 30.144 138.664 29.6C138.312 29.04 138.136 28.328 138.136 27.464ZM140.704 35C139.888 35.368 139.48 35.944 139.48 36.728C139.48 38.136 140.616 38.84 142.888 38.84C143.56 38.84 144.128 38.776 144.592 38.648C145.056 38.52 145.432 38.352 145.72 38.144C146.008 37.936 146.216 37.704 146.344 37.448C146.488 37.192 146.56 36.928 146.56 36.656C146.56 35.984 146.328 35.536 145.864 35.312C145.416 35.104 144.848 35 144.16 35H140.704ZM145.096 27.512C145.096 26.664 144.872 26.04 144.424 25.64C143.992 25.24 143.416 25.04 142.696 25.04C141.976 25.04 141.392 25.24 140.944 25.64C140.512 26.04 140.296 26.632 140.296 27.416C140.296 28.248 140.512 28.864 140.944 29.264C141.392 29.648 141.976 29.84 142.696 29.84C143.416 29.84 143.992 29.648 144.424 29.264C144.872 28.88 145.096 28.296 145.096 27.512ZM161.21 29.24C161.21 30.184 161.066 31.032 160.778 31.784C160.49 32.52 160.09 33.144 159.578 33.656C159.082 34.168 158.498 34.56 157.826 34.832C157.154 35.088 156.426 35.216 155.642 35.216C154.858 35.216 154.13 35.096 153.458 34.856C152.802 34.6 152.226 34.232 151.73 33.752C151.25 33.256 150.866 32.656 150.578 31.952C150.306 31.232 150.17 30.408 150.17 29.48C150.17 28.536 150.314 27.696 150.602 26.96C150.89 26.224 151.282 25.608 151.778 25.112C152.29 24.6 152.882 24.216 153.554 23.96C154.226 23.688 154.954 23.552 155.738 23.552C156.522 23.552 157.242 23.672 157.898 23.912C158.57 24.152 159.146 24.512 159.626 24.992C160.122 25.472 160.506 26.072 160.778 26.792C161.066 27.496 161.21 28.312 161.21 29.24ZM159.002 29.36C159.002 28.608 158.906 27.968 158.714 27.44C158.522 26.912 158.266 26.48 157.946 26.144C157.642 25.808 157.29 25.568 156.89 25.424C156.49 25.264 156.082 25.184 155.666 25.184C155.25 25.184 154.842 25.248 154.442 25.376C154.042 25.504 153.69 25.728 153.386 26.048C153.082 26.368 152.834 26.8 152.642 27.344C152.466 27.872 152.378 28.544 152.378 29.36C152.378 30.112 152.474 30.76 152.666 31.304C152.858 31.832 153.106 32.264 153.41 32.6C153.73 32.936 154.09 33.184 154.49 33.344C154.89 33.504 155.298 33.584 155.714 33.584C156.13 33.584 156.538 33.52 156.938 33.392C157.338 33.248 157.69 33.016 157.994 32.696C158.298 32.36 158.538 31.928 158.714 31.4C158.906 30.856 159.002 30.176 159.002 29.36ZM175.749 19.664C176.773 19.664 177.717 19.832 178.581 20.168C179.445 20.488 180.189 20.976 180.813 21.632C181.453 22.272 181.949 23.08 182.301 24.056C182.653 25.016 182.829 26.144 182.829 27.44C182.829 28.704 182.645 29.824 182.277 30.8C181.909 31.76 181.405 32.568 180.765 33.224C180.125 33.88 179.365 34.376 178.485 34.712C177.621 35.048 176.677 35.216 175.653 35.216C174.629 35.216 173.685 35.056 172.821 34.736C171.957 34.4 171.205 33.912 170.565 33.272C169.941 32.616 169.453 31.808 169.101 30.848C168.749 29.872 168.573 28.736 168.573 27.44C168.573 26.176 168.757 25.064 169.125 24.104C169.493 23.128 169.997 22.312 170.637 21.656C171.277 21 172.029 20.504 172.893 20.168C173.773 19.832 174.725 19.664 175.749 19.664ZM170.973 27.44C170.973 28.464 171.093 29.352 171.333 30.104C171.589 30.856 171.933 31.48 172.365 31.976C172.797 32.472 173.301 32.84 173.877 33.08C174.469 33.32 175.093 33.44 175.749 33.44C176.405 33.44 177.013 33.32 177.573 33.08C178.149 32.84 178.645 32.472 179.061 31.976C179.493 31.48 179.829 30.856 180.069 30.104C180.309 29.352 180.429 28.464 180.429 27.44C180.429 26.384 180.301 25.48 180.045 24.728C179.805 23.976 179.469 23.36 179.037 22.88C178.605 22.384 178.093 22.024 177.501 21.8C176.925 21.56 176.309 21.44 175.653 21.44C174.997 21.44 174.381 21.56 173.805 21.8C173.229 22.04 172.733 22.408 172.317 22.904C171.901 23.4 171.573 24.024 171.333 24.776C171.093 25.528 170.973 26.416 170.973 27.44ZM185.65 35V17.96H187.714V35H185.65ZM191.421 35V23.72H193.533V35H191.421ZM192.477 20.816C192.109 20.816 191.789 20.696 191.517 20.456C191.261 20.2 191.133 19.888 191.133 19.52C191.133 19.152 191.261 18.84 191.517 18.584C191.789 18.328 192.109 18.2 192.477 18.2C192.829 18.2 193.141 18.328 193.413 18.584C193.685 18.84 193.821 19.152 193.821 19.52C193.821 19.888 193.685 20.2 193.413 20.456C193.141 20.696 192.829 20.816 192.477 20.816ZM203.927 23.72H206.183L201.983 35H199.919L195.671 23.72H197.951L200.495 31.472L200.927 33.248H201.023L201.431 31.496L203.927 23.72ZM217.466 29.6H209.378V29.696C209.378 30.944 209.714 31.904 210.386 32.576C211.074 33.248 212.002 33.584 213.17 33.584C213.778 33.584 214.314 33.536 214.778 33.44C215.258 33.344 215.778 33.184 216.338 32.96L216.77 34.52C216.306 34.728 215.754 34.896 215.114 35.024C214.49 35.152 213.818 35.216 213.098 35.216C212.282 35.216 211.514 35.104 210.794 34.88C210.09 34.656 209.466 34.312 208.922 33.848C208.378 33.368 207.946 32.76 207.626 32.024C207.322 31.288 207.17 30.408 207.17 29.384C207.17 28.504 207.298 27.704 207.554 26.984C207.826 26.264 208.202 25.656 208.682 25.16C209.162 24.648 209.738 24.256 210.41 23.984C211.098 23.696 211.866 23.552 212.714 23.552C213.434 23.552 214.082 23.672 214.658 23.912C215.25 24.152 215.754 24.488 216.17 24.92C216.586 25.352 216.906 25.872 217.13 26.48C217.354 27.088 217.466 27.76 217.466 28.496V29.6ZM215.282 28.088C215.282 27.672 215.226 27.288 215.114 26.936C215.018 26.568 214.858 26.248 214.634 25.976C214.426 25.704 214.154 25.488 213.818 25.328C213.482 25.168 213.074 25.088 212.594 25.088C211.714 25.088 210.994 25.368 210.434 25.928C209.89 26.488 209.554 27.224 209.426 28.136L215.282 28.088ZM220.296 35V23.72H222.408V35H220.296ZM221.352 20.816C220.984 20.816 220.664 20.696 220.392 20.456C220.136 20.2 220.008 19.888 220.008 19.52C220.008 19.152 220.136 18.84 220.392 18.584C220.664 18.328 220.984 18.2 221.352 18.2C221.704 18.2 222.016 18.328 222.288 18.584C222.56 18.84 222.696 19.152 222.696 19.52C222.696 19.888 222.56 20.2 222.288 20.456C222.016 20.696 221.704 20.816 221.352 20.816ZM225.818 35V23.72H227.402L227.762 25.976C228.034 25.256 228.482 24.672 229.106 24.224C229.73 23.776 230.45 23.552 231.266 23.552C231.682 23.552 232.026 23.584 232.298 23.648C232.57 23.712 232.818 23.792 233.042 23.888L232.634 25.736C232.442 25.64 232.226 25.56 231.986 25.496C231.762 25.432 231.49 25.4 231.17 25.4C230.706 25.4 230.274 25.48 229.874 25.64C229.49 25.8 229.146 26.04 228.842 26.36C228.554 26.68 228.322 27.08 228.146 27.56C227.986 28.024 227.906 28.56 227.906 29.168V35H225.818ZM234.565 24.728C234.949 24.536 235.309 24.368 235.645 24.224C235.981 24.064 236.317 23.936 236.653 23.84C236.989 23.744 237.333 23.672 237.685 23.624C238.037 23.576 238.421 23.552 238.837 23.552C239.461 23.552 240.029 23.624 240.541 23.768C241.069 23.896 241.517 24.12 241.885 24.44C242.269 24.76 242.565 25.184 242.773 25.712C242.981 26.224 243.085 26.872 243.085 27.656V35H241.333L241.069 33.752H241.021C240.525 34.28 239.981 34.656 239.389 34.88C238.797 35.104 238.141 35.216 237.421 35.216C236.877 35.216 236.373 35.144 235.909 35C235.461 34.84 235.069 34.624 234.733 34.352C234.397 34.064 234.133 33.72 233.941 33.32C233.765 32.92 233.677 32.472 233.677 31.976C233.677 30.792 234.141 29.896 235.069 29.288C236.013 28.664 237.253 28.352 238.789 28.352H240.949V27.392C240.949 26.576 240.741 26.024 240.325 25.736C239.909 25.432 239.349 25.28 238.645 25.28C238.229 25.28 237.749 25.352 237.205 25.496C236.677 25.624 236.069 25.88 235.381 26.264L234.565 24.728ZM240.973 29.792L239.197 29.84C237.997 29.872 237.141 30.088 236.629 30.488C236.133 30.872 235.885 31.344 235.885 31.904C235.885 32.24 235.941 32.528 236.053 32.768C236.165 32.992 236.309 33.168 236.485 33.296C236.677 33.424 236.893 33.52 237.133 33.584C237.389 33.632 237.653 33.656 237.925 33.656C238.453 33.656 238.989 33.536 239.533 33.296C240.077 33.04 240.557 32.64 240.973 32.096V29.792Z" fill="#202020"/>
<path d="M0 20.1905L13.4816 0H102.984C94.3213 3.49602 89.6652 8.08591 81.6383 20.1905H0Z" fill="url(#paint0_linear)"/>
<path d="M55.873 20.1892L58.8811 20.1905C64.2516 10.3153 69.1922 5.67962 80.127 0C67.5877 2.26889 61.4884 11.2322 55.873 20.1892Z" fill="#342680"/>
<path d="M10.1143 56L42.7029 0H80.1611C69.1578 3.46144 63.828 8.48778 56.0005 23.4114L45.1377 42.8896C38.9571 55.6254 27.9069 56 27.9069 56H10.1143Z" fill="url(#paint1_linear)"/>
<defs>
<linearGradient id="paint0_linear" x1="87.0216" y1="2.72571" x2="82.6052" y2="28.6915" gradientUnits="userSpaceOnUse">
<stop stop-color="#6F57F9"/>
<stop offset="1" stop-color="#342680"/>
</linearGradient>
<linearGradient id="paint1_linear" x1="69.3038" y1="7.56" x2="34.6019" y2="57.5933" gradientUnits="userSpaceOnUse">
<stop stop-color="#6F57F9"/>
<stop offset="1" stop-color="#342680"/>
</linearGradient>
</defs>
</svg>
