<svg width="97" height="65" viewBox="0 0 97 65" fill="none" xmlns="http://www.w3.org/2000/svg">
<rect x="-1" y="1" width="76.2341" height="50.156" rx="6" transform="matrix(-1 0 0 1 76.2344 0)" stroke="url(#paint0_linear)" stroke-width="2"/>
<rect width="32" height="24" rx="3.421" transform="matrix(-1 0 0 1 69 14)" fill="url(#paint1_linear)"/>
<rect width="17" height="5" rx="1.5" transform="matrix(-1 0 0 1 27 32)" fill="url(#paint2_linear)"/>
<path d="M30 17H10" stroke="#313133" stroke-width="3" stroke-linecap="round"/>
<path d="M32 23H12" stroke="#5D5D5F" stroke-width="2" stroke-linecap="round" stroke-linejoin="round"/>
<rect width="16.6667" height="10.6667" rx="2.28066" transform="matrix(-1 0 0 1 92.667 43)" fill="url(#paint3_linear)"/>
<rect x="73" y="24" width="22.4054" height="40" rx="3.66667" stroke="url(#paint4_linear)" stroke-width="2"/>
<path d="M59.0038 17.7321L60.7065 23.124C61.1044 24.0607 61.3802 24.3632 62.1254 23.8334L62.8348 23.124L64.2538 24.5429C64.6945 24.991 64.9437 24.9485 65.3889 24.6848L66.524 23.6915C66.8777 23.1934 66.8372 22.913 66.524 22.4145L65.1051 20.9956L65.8146 20.2861C66.2413 19.7877 66.363 19.5074 65.8146 19.0091L59.7132 17.0226C59.0589 16.9226 58.9793 17.1536 59.0038 17.7321Z" fill="#F8F7FA"/>
<path d="M78.667 48.5569L80.107 47.2235L82.027 49.0013L85.627 45.668L90.667 50.3346" stroke="url(#paint5_linear)" stroke-width="2" stroke-linecap="round" stroke-linejoin="round"/>
<path d="M40 29L43 26L47 30L54.5 22.5L65 33" stroke="url(#paint6_linear)" stroke-width="3" stroke-linecap="round" stroke-linejoin="round"/>
<path d="M89 34H79" stroke="#89898B" stroke-width="2" stroke-linecap="round"/>
<path d="M90 30H78" stroke="#313133" stroke-width="2" stroke-linecap="round"/>
<path d="M32 28H12" stroke="#89898B" stroke-width="2" stroke-linecap="round"/>
<rect width="12" height="4" rx="1" transform="matrix(-1 0 0 1 90 37)" fill="url(#paint7_linear)"/>
<defs>
<linearGradient id="paint0_linear" x1="39.117" y1="-5.65911e-08" x2="38.2344" y2="48.5" gradientUnits="userSpaceOnUse">
<stop stop-color="#313133"/>
<stop offset="1" stop-color="#313133" stop-opacity="0"/>
</linearGradient>
<linearGradient id="paint1_linear" x1="27.04" y1="3.24" x2="12.5225" y2="25.5519" gradientUnits="userSpaceOnUse">
<stop stop-color="#6F57F9"/>
<stop offset="1" stop-color="#342680"/>
</linearGradient>
<linearGradient id="paint2_linear" x1="14.365" y1="0.675" x2="12.78" y2="6.88679" gradientUnits="userSpaceOnUse">
<stop stop-color="#6F57F9"/>
<stop offset="1" stop-color="#342680"/>
</linearGradient>
<linearGradient id="paint3_linear" x1="14.0833" y1="1.44" x2="8.09313" y2="12.2287" gradientUnits="userSpaceOnUse">
<stop stop-color="#6F57F9"/>
<stop offset="1" stop-color="#342680"/>
</linearGradient>
<linearGradient id="paint4_linear" x1="84.2027" y1="23" x2="84" y2="62.5" gradientUnits="userSpaceOnUse">
<stop stop-color="#313133"/>
<stop offset="1" stop-color="#313133" stop-opacity="0"/>
</linearGradient>
<linearGradient id="paint5_linear" x1="88.492" y1="46.3096" x2="86.7341" y2="51.6437" gradientUnits="userSpaceOnUse">
<stop stop-color="#FDFDFD"/>
<stop offset="1" stop-color="#FDFDFD" stop-opacity="0"/>
</linearGradient>
<linearGradient id="paint6_linear" x1="52.5" y1="22.5" x2="63.5" y2="33.5" gradientUnits="userSpaceOnUse">
<stop stop-color="#F8F7FA"/>
<stop offset="1" stop-color="#F8F7FA" stop-opacity="0"/>
</linearGradient>
<linearGradient id="paint7_linear" x1="10.14" y1="0.54" x2="8.72748" y2="5.4245" gradientUnits="userSpaceOnUse">
<stop stop-color="#6F57F9"/>
<stop offset="1" stop-color="#342680"/>
</linearGradient>
</defs>
</svg>
