<svg width="49" height="67" viewBox="0 0 49 67" fill="none" xmlns="http://www.w3.org/2000/svg">
<path d="M32.2754 48.2102L38.3668 65.9998L40.8414 57.9521L47.5039 62.1878L42.3643 45.457" stroke="url(#paint0_linear)" stroke-width="2" stroke-linecap="round" stroke-linejoin="round"/>
<path d="M23.4062 2.34222L26.2737 6.66865C26.8882 7.59586 28.0551 7.98556 29.1035 7.61367L33.6909 5.98641C33.9658 5.88888 34.2547 6.09228 34.2555 6.384L34.2715 12.1052C34.2744 13.1227 34.9126 14.03 35.8693 14.3766L40.7564 16.1471C41.0131 16.2401 41.1158 16.5481 40.9664 16.7766L37.8322 21.5674C37.305 22.3732 37.305 23.4147 37.8322 24.2205L40.9664 29.0113C41.1158 29.2398 41.0131 29.5478 40.7564 29.6408L35.8693 31.4113C34.9126 31.7579 34.2744 32.6652 34.2715 33.6828L34.2555 39.4039C34.2547 39.6956 33.9658 39.899 33.6909 39.8015L29.1035 38.1742C28.0551 37.8024 26.8882 38.1921 26.2737 39.1193L23.4062 43.4457C23.2388 43.6982 22.8681 43.6982 22.7008 43.4457L19.8333 39.1193C19.2187 38.1921 18.0518 37.8024 17.0034 38.1742L12.416 39.8015C12.1411 39.899 11.8522 39.6956 11.8514 39.4039L11.8354 33.6828C11.8325 32.6652 11.1943 31.7579 10.2376 31.4113L5.35047 29.6408C5.09382 29.5478 4.99106 29.2398 5.14051 29.0113L8.27475 24.2205C8.80194 23.4147 8.80194 22.3732 8.27475 21.5674L5.14051 16.7766C4.99106 16.5481 5.09382 16.2401 5.35047 16.1471L10.2376 14.3766C11.1943 14.03 11.8325 13.1227 11.8354 12.1052L11.8514 6.38401C11.8522 6.09228 12.1411 5.88888 12.416 5.98641L17.0034 7.61367C18.0518 7.98556 19.2187 7.59586 19.8333 6.66865L22.7008 2.34222C22.8681 2.08973 23.2388 2.08973 23.4062 2.34222Z" fill="url(#paint1_linear)" stroke="url(#paint2_linear)" stroke-width="2" stroke-linecap="round" stroke-linejoin="round"/>
<path d="M30.5015 17.9453L21.8228 26.899C21.2637 27.4759 20.3382 27.4759 19.7791 26.899L16.3916 23.4042" stroke="#F8F7FA" stroke-width="2" stroke-linecap="round" stroke-linejoin="round"/>
<path d="M6.33094 45.457L1 62.1447L7.66367 57.8658L10.3291 65.9957L16.2312 48.4523" stroke="url(#paint3_linear)" stroke-width="1.69898" stroke-linecap="round" stroke-linejoin="round"/>
<defs>
<linearGradient id="paint0_linear" x1="45.1062" y1="64.0721" x2="37.0851" y2="46.886" gradientUnits="userSpaceOnUse">
<stop stop-color="#313133"/>
<stop offset="1" stop-color="#313133" stop-opacity="0"/>
</linearGradient>
<linearGradient id="paint1_linear" x1="37.3708" y1="6.18137" x2="7.10542" y2="37.8" gradientUnits="userSpaceOnUse">
<stop stop-color="#6F57F9"/>
<stop offset="1" stop-color="#342680"/>
</linearGradient>
<linearGradient id="paint2_linear" x1="37.3708" y1="6.18137" x2="7.10542" y2="37.8" gradientUnits="userSpaceOnUse">
<stop stop-color="#6F57F9"/>
<stop offset="1" stop-color="#342680"/>
</linearGradient>
<linearGradient id="paint3_linear" x1="6.2125" y1="64.0721" x2="11.7309" y2="46.3798" gradientUnits="userSpaceOnUse">
<stop stop-color="#313133"/>
<stop offset="1" stop-color="#313133" stop-opacity="0"/>
</linearGradient>
</defs>
</svg>
