<svg width="140" height="140" viewBox="0 0 140 140" fill="none" xmlns="http://www.w3.org/2000/svg">
<rect x="1.34615" y="1.34615" width="137.308" height="137.308" rx="22.6538" stroke="url(#paint0_linear)" stroke-width="2.69231"/>
<rect x="-1.5" y="1.5" width="75.2341" height="49.156" rx="5.5" transform="matrix(-1 0 0 1 99.2344 39)" fill="#FBFAFF" stroke="#343333" stroke-width="3"/>
<rect x="-0.5" y="0.5" width="31" height="23" rx="2.921" transform="matrix(-1 0 0 1 92 53)" fill="#F6F5FF" stroke="black" stroke-linecap="round" stroke-linejoin="round"/>
<rect x="-0.5" y="0.5" width="16" height="4" rx="1" transform="matrix(-1 0 0 1 50 72)" fill="#F6F5FF" stroke="black" stroke-linecap="round" stroke-linejoin="round"/>
<rect width="12" height="4" rx="1" transform="matrix(-1 0 0 1 114 76)" fill="#202020"/>
<path d="M51.9033 93.5039V98.7021C51.9033 100.058 52.5664 100.284 53.4506 100.284C54.158 100.284 67.2289 100.284 73.5655 100.284C74.6707 100.284 75.1128 100.058 75.1128 98.7021C75.1128 97.3461 75.1128 94.86 75.1128 93.5039" stroke="#202020" stroke-width="3"/>
<path d="M52 56H32" stroke="#202020" stroke-width="3"/>
<path d="M55 62H35" stroke="#202020" stroke-width="2"/>
<path d="M55 67H35" stroke="black" stroke-width="2"/>
<path d="M113.334 68.668H100.001" stroke="url(#paint1_linear)" stroke-width="2"/>
<path d="M115.334 72.668H102.001" stroke="url(#paint2_linear)" stroke-width="1.33333"/>
<path d="M64 68L67 65L71 69L78.5 61.5L89 72" stroke="url(#paint3_linear)" stroke-width="3" stroke-linecap="round" stroke-linejoin="round"/>
<rect width="16.6667" height="10.6667" rx="2.28066" transform="matrix(-1 0 0 1 116.667 82)" fill="#202020"/>
<path d="M102.667 87.5569L104.107 86.2235L106.027 88.0013L109.627 84.668L114.667 89.3346" stroke="url(#paint4_linear)" stroke-width="2" stroke-linecap="round" stroke-linejoin="round"/>
<rect x="97" y="63" width="22.4054" height="40" rx="3.66667" fill="#FBFAFF" stroke="#343333" stroke-width="2"/>
<path d="M67.0038 73.7321L68.7065 79.124C69.1044 80.0607 69.3802 80.3632 70.1254 79.8334L70.8348 79.124L72.2538 80.5429C72.6945 80.991 72.9437 80.9485 73.3889 80.6848L74.524 79.6915C74.8777 79.1934 74.8372 78.913 74.524 78.4145L73.1051 76.9956L73.8146 76.2861C74.2413 75.7877 74.363 75.5074 73.8146 75.0091L67.7132 73.0226C67.0589 72.9226 66.9793 73.1536 67.0038 73.7321Z" fill="#202020"/>
<circle cx="108.05" cy="98.2109" r="2.5" fill="#202020"/>
<defs>
<linearGradient id="paint0_linear" x1="114.625" y1="19.25" x2="27.125" y2="122.5" gradientUnits="userSpaceOnUse">
<stop stop-color="#6F57F9"/>
<stop offset="1" stop-color="#303030" stop-opacity="0"/>
</linearGradient>
<linearGradient id="paint1_linear" x1="113.334" y1="68.168" x2="100.001" y2="68.168" gradientUnits="userSpaceOnUse">
<stop stop-color="#72716E"/>
<stop offset="1" stop-color="#FAFAF9"/>
</linearGradient>
<linearGradient id="paint2_linear" x1="115.334" y1="72.168" x2="102.001" y2="72.168" gradientUnits="userSpaceOnUse">
<stop stop-color="#FDFDFD"/>
<stop offset="1" stop-color="#FDFDFD" stop-opacity="0"/>
</linearGradient>
<linearGradient id="paint3_linear" x1="84.4688" y1="62.9437" x2="80.2655" y2="74.7529" gradientUnits="userSpaceOnUse">
<stop/>
<stop offset="1" stop-opacity="0"/>
</linearGradient>
<linearGradient id="paint4_linear" x1="112.492" y1="85.3096" x2="110.734" y2="90.6437" gradientUnits="userSpaceOnUse">
<stop stop-color="#FDFDFD"/>
<stop offset="1" stop-color="#FDFDFD" stop-opacity="0"/>
</linearGradient>
</defs>
</svg>
