<svg width="39" height="64" viewBox="0 0 39 64" fill="none" xmlns="http://www.w3.org/2000/svg">
<path d="M36.7368 50.0938L29.7895 40L26 51.2812L38 59V53.6562C38 51.875 38 51.875 36.7368 50.0938Z" fill="url(#paint0_linear)" stroke="url(#paint1_linear)" stroke-linecap="round" stroke-linejoin="round"/>
<path d="M2.15789 51.0938L8.52632 41L12 52.2812L1 60V54.6562C1 52.875 1 52.875 2.15789 51.0938Z" fill="url(#paint2_linear)" stroke="url(#paint3_linear)" stroke-linecap="round" stroke-linejoin="round"/>
<path d="M14.5548 55.537C4.62899 33.1481 9.15793 14.7778 19.0846 1C28.5361 13.0556 33.54 36.0185 23.451 55.537M14.5548 55.537H23.451M14.5548 55.537L13.5249 63H24.6443L23.451 55.537" stroke="url(#paint4_linear)" stroke-width="2" stroke-linecap="round" stroke-linejoin="round"/>
<ellipse cx="19" cy="26" rx="6" ry="7" fill="url(#paint5_linear)"/>
<defs>
<linearGradient id="paint0_linear" x1="27.86" y1="42.565" x2="39.823" y2="51.2741" gradientUnits="userSpaceOnUse">
<stop stop-color="#6F57F9"/>
<stop offset="1" stop-color="#342680"/>
</linearGradient>
<linearGradient id="paint1_linear" x1="27.86" y1="42.565" x2="39.823" y2="51.2741" gradientUnits="userSpaceOnUse">
<stop stop-color="#6F57F9"/>
<stop offset="1" stop-color="#342680"/>
</linearGradient>
<linearGradient id="paint2_linear" x1="10.295" y1="43.565" x2="-1.31332" y2="51.3117" gradientUnits="userSpaceOnUse">
<stop stop-color="#6F57F9"/>
<stop offset="1" stop-color="#342680"/>
</linearGradient>
<linearGradient id="paint3_linear" x1="10.295" y1="43.565" x2="-1.31332" y2="51.3117" gradientUnits="userSpaceOnUse">
<stop stop-color="#6F57F9"/>
<stop offset="1" stop-color="#342680"/>
</linearGradient>
<linearGradient id="paint4_linear" x1="19.6406" y1="39.463" x2="10.7735" y2="-1.7569" gradientUnits="userSpaceOnUse">
<stop stop-color="#313133"/>
<stop offset="1" stop-color="#313133" stop-opacity="0"/>
</linearGradient>
<linearGradient id="paint5_linear" x1="23.14" y1="20.89" x2="13.878" y2="30.0409" gradientUnits="userSpaceOnUse">
<stop stop-color="#6F57F9"/>
<stop offset="1" stop-color="#342680"/>
</linearGradient>
</defs>
</svg>
