<svg width="140" height="140" viewBox="0 0 140 140" fill="none" xmlns="http://www.w3.org/2000/svg">
<rect x="1.34615" y="1.34615" width="137.308" height="137.308" rx="22.6538" stroke="url(#paint0_linear)" stroke-width="2.69231"/>
<path d="M108.813 109.25H103.659V53.5802C103.659 50.0336 101.42 47.1484 98.6681 47.1484H83.4505C82.7952 47.1484 82.264 47.833 82.264 48.6775C82.264 49.5219 82.7952 50.2065 83.4505 50.2065H98.6681C100.112 50.2065 101.286 51.7201 101.286 53.5802V109.25H97.2248C97.286 108.673 97.3181 108.092 97.3181 107.511C97.3181 100.36 92.8035 94.5421 87.2543 94.5421C86.5083 94.5421 85.7633 94.652 85.0289 94.8695C83.7487 91.6908 81.1986 89.6392 78.3773 89.6392C77.4568 89.6392 76.5628 89.8555 75.7212 90.2757C75.3755 86.2464 72.7174 83.102 69.5 83.102C66.2826 83.102 63.6245 86.2464 63.2788 90.2757C62.4372 89.8555 61.5432 89.6392 60.6227 89.6392C57.8014 89.6392 55.2511 91.6908 53.9711 94.8695C53.2366 94.6518 52.4917 94.5421 51.7457 94.5421C46.1964 94.5421 41.6819 100.36 41.6819 107.511C41.6819 108.092 41.714 108.673 41.7752 109.25H37.714V53.5802C37.714 51.7199 38.8883 50.2065 40.3319 50.2065H55.55C56.2052 50.2065 56.7365 49.5219 56.7365 48.6775C56.7365 47.833 56.2052 47.1484 55.55 47.1484H40.3319C37.5798 47.1484 35.3409 50.0338 35.3409 53.5802V109.25H30.1865C29.5312 109.25 29 109.935 29 110.779V114.048C29 116.693 30.6702 118.845 32.7228 118.845H106.277C108.33 118.845 110 116.693 110 114.048V110.779C110 109.935 109.469 109.25 108.813 109.25ZM107.627 114.048C107.627 115.007 107.021 115.787 106.277 115.787H32.7228C31.9785 115.787 31.373 115.007 31.373 114.048V112.309H46.6724C47.3277 112.309 47.8589 111.624 47.8589 110.779C47.8589 109.935 47.3277 109.25 46.6724 109.25H44.1763C44.0957 108.674 44.0548 108.092 44.0548 107.511C44.0548 102.046 47.5049 97.6002 51.7455 97.6002C52.5901 97.6002 53.4359 97.7865 54.2593 98.1539C54.5576 98.287 54.8844 98.2615 55.1681 98.0834C55.4516 97.905 55.6683 97.5886 55.7705 97.2039C56.4857 94.5085 58.4357 92.6975 60.6229 92.6975C61.8222 92.6975 62.9613 93.2445 63.9172 94.2795C64.3207 94.7164 64.8995 94.758 65.3382 94.3815C65.7768 94.0049 65.9702 93.3007 65.8129 92.6526C65.6772 92.0928 65.6139 91.6212 65.6139 91.1684C65.6139 88.407 67.3573 86.1605 69.5 86.1605C71.6427 86.1605 73.3861 88.4072 73.3861 91.1684C73.3861 91.6212 73.3228 92.0928 73.1871 92.6526C73.0298 93.3009 73.2233 94.0051 73.6618 94.3815C74.1005 94.7578 74.6793 94.7164 75.0828 94.2795C76.0387 93.2447 77.1779 92.6975 78.3771 92.6975C80.5643 92.6975 82.5143 94.5085 83.2295 97.2039C83.3317 97.5886 83.5484 97.905 83.8319 98.0834C84.1156 98.2617 84.4426 98.2872 84.7407 98.1539C85.5641 97.7865 86.4097 97.6002 87.2545 97.6002C91.4953 97.6002 94.9452 102.046 94.9452 107.511C94.9452 108.092 94.9041 108.674 94.8237 109.25H51.746C51.0907 109.25 50.5594 109.935 50.5594 110.779C50.5594 111.624 51.0907 112.309 51.746 112.309H107.627V114.048Z" fill="#202020"/>
<path d="M108.813 109.25H103.659V53.5802C103.659 50.0336 101.42 47.1484 98.6681 47.1484H83.4505C82.7952 47.1484 82.264 47.833 82.264 48.6775C82.264 49.5219 82.7952 50.2065 83.4505 50.2065H98.6681C100.112 50.2065 101.286 51.7201 101.286 53.5802V109.25H97.2248C97.286 108.673 97.3181 108.092 97.3181 107.511C97.3181 100.36 92.8035 94.5421 87.2543 94.5421C86.5083 94.5421 85.7633 94.652 85.0289 94.8695C83.7487 91.6908 81.1986 89.6392 78.3773 89.6392C77.4568 89.6392 76.5628 89.8555 75.7212 90.2757C75.3755 86.2464 72.7174 83.102 69.5 83.102C66.2826 83.102 63.6245 86.2464 63.2788 90.2757C62.4372 89.8555 61.5432 89.6392 60.6227 89.6392C57.8014 89.6392 55.2511 91.6908 53.9711 94.8695C53.2366 94.6518 52.4917 94.5421 51.7457 94.5421C46.1964 94.5421 41.6819 100.36 41.6819 107.511C41.6819 108.092 41.714 108.673 41.7752 109.25H37.714V53.5802C37.714 51.7199 38.8883 50.2065 40.3319 50.2065H55.55C56.2052 50.2065 56.7365 49.5219 56.7365 48.6775C56.7365 47.833 56.2052 47.1484 55.55 47.1484H40.3319C37.5798 47.1484 35.3409 50.0338 35.3409 53.5802V109.25H30.1865C29.5312 109.25 29 109.935 29 110.779V114.048C29 116.693 30.6702 118.845 32.7228 118.845H106.277C108.33 118.845 110 116.693 110 114.048V110.779C110 109.935 109.469 109.25 108.813 109.25ZM107.627 114.048C107.627 115.007 107.021 115.787 106.277 115.787H32.7228C31.9785 115.787 31.373 115.007 31.373 114.048V112.309H46.6724C47.3277 112.309 47.8589 111.624 47.8589 110.779C47.8589 109.935 47.3277 109.25 46.6724 109.25H44.1763C44.0957 108.674 44.0548 108.092 44.0548 107.511C44.0548 102.046 47.5049 97.6002 51.7455 97.6002C52.5901 97.6002 53.4359 97.7865 54.2593 98.1539C54.5576 98.287 54.8844 98.2615 55.1681 98.0834C55.4516 97.905 55.6683 97.5886 55.7705 97.2039C56.4857 94.5085 58.4357 92.6975 60.6229 92.6975C61.8222 92.6975 62.9613 93.2445 63.9172 94.2795C64.3207 94.7164 64.8995 94.758 65.3382 94.3815C65.7768 94.0049 65.9702 93.3007 65.8129 92.6526C65.6772 92.0928 65.6139 91.6212 65.6139 91.1684C65.6139 88.407 67.3573 86.1605 69.5 86.1605C71.6427 86.1605 73.3861 88.4072 73.3861 91.1684C73.3861 91.6212 73.3228 92.0928 73.1871 92.6526C73.0298 93.3009 73.2233 94.0051 73.6618 94.3815C74.1005 94.7578 74.6793 94.7164 75.0828 94.2795C76.0387 93.2447 77.1779 92.6975 78.3771 92.6975C80.5643 92.6975 82.5143 94.5085 83.2295 97.2039C83.3317 97.5886 83.5484 97.905 83.8319 98.0834C84.1156 98.2617 84.4426 98.2872 84.7407 98.1539C85.5641 97.7865 86.4097 97.6002 87.2545 97.6002C91.4953 97.6002 94.9452 102.046 94.9452 107.511C94.9452 108.092 94.9041 108.674 94.8237 109.25H51.746C51.0907 109.25 50.5594 109.935 50.5594 110.779C50.5594 111.624 51.0907 112.309 51.746 112.309H107.627V114.048Z" fill="#202020"/>
<path d="M54.2525 65.9459C53.5066 67.0994 53.0957 68.5618 53.0957 70.0635V74.8256C53.0957 75.3691 53.3197 75.8718 53.6839 76.146C53.8687 76.2851 54.0755 76.3546 54.2822 76.3546C54.4833 76.3546 54.6844 76.289 54.8654 76.1573L63.315 70.0132C63.6369 70.7708 63.9784 71.5161 64.3389 72.2478L63.2767 77.7232C63.188 78.1801 63.2677 78.6639 63.4925 79.0351C63.7173 79.4064 64.0624 79.6233 64.4278 79.6233H74.5732C74.9387 79.6233 75.2836 79.4064 75.5085 79.0351C75.7333 78.6641 75.8131 78.1801 75.7243 77.7232L74.6621 72.2478C75.0227 71.5161 75.3641 70.771 75.686 70.0132L84.1357 76.1573C84.3168 76.289 84.5177 76.3546 84.7188 76.3546C84.9256 76.3546 85.1324 76.2849 85.3171 76.146C85.6813 75.872 85.9053 75.3693 85.9053 74.8256V70.0635C85.9053 68.5618 85.4945 67.0994 84.7486 65.9459L79.1159 57.2383C79.4125 54.967 79.5644 52.6512 79.5644 50.3116C79.5644 44.7355 78.7267 39.3455 77.0746 34.2917C75.4812 29.4176 73.213 25.0934 70.3331 21.4394C69.8713 20.8535 69.1301 20.8535 68.6683 21.4394C65.7884 25.0932 63.5202 29.4174 61.9268 34.2917C60.2747 39.3457 59.437 44.7355 59.437 50.3116C59.437 52.6476 59.5884 54.9599 59.884 57.2277L54.2525 65.9459ZM55.4688 72.207V70.0635C55.4688 69.2758 55.6842 68.5088 56.0755 67.9037L60.5229 61.0263C60.9673 63.1686 61.5449 65.2579 62.253 67.2742L55.4688 72.207ZM65.9474 76.565L66.6222 73.0861H72.3785L73.0534 76.565H65.9474ZM82.9251 67.9037C83.3163 68.5088 83.5318 69.2758 83.5318 70.0635V72.207L76.7476 67.2739C77.4555 65.2577 78.0333 63.1686 78.4777 61.0261L82.9251 67.9037ZM69.5003 24.7222C71.4929 27.4824 73.1363 30.6473 74.3853 34.0742H64.6153C65.8643 30.6473 67.5077 27.4824 69.5003 24.7222ZM63.6265 37.1321H75.3739C76.5603 41.3002 77.1909 45.7689 77.1909 50.3114C77.1909 57.3425 75.723 64.1406 72.9396 70.0278H66.0608C63.2774 64.1406 61.8095 57.3425 61.8095 50.3114C61.8095 45.7689 62.4403 41.3005 63.6265 37.1321Z" fill="#202020"/>
<path d="M54.2525 65.9459C53.5066 67.0994 53.0957 68.5618 53.0957 70.0635V74.8256C53.0957 75.3691 53.3197 75.8718 53.6839 76.146C53.8687 76.2851 54.0755 76.3546 54.2822 76.3546C54.4833 76.3546 54.6844 76.289 54.8654 76.1573L63.315 70.0132C63.6369 70.7708 63.9784 71.5161 64.3389 72.2478L63.2767 77.7232C63.188 78.1801 63.2677 78.6639 63.4925 79.0351C63.7173 79.4064 64.0624 79.6233 64.4278 79.6233H74.5732C74.9387 79.6233 75.2836 79.4064 75.5085 79.0351C75.7333 78.6641 75.8131 78.1801 75.7243 77.7232L74.6621 72.2478C75.0227 71.5161 75.3641 70.771 75.686 70.0132L84.1357 76.1573C84.3168 76.289 84.5177 76.3546 84.7188 76.3546C84.9256 76.3546 85.1324 76.2849 85.3171 76.146C85.6813 75.872 85.9053 75.3693 85.9053 74.8256V70.0635C85.9053 68.5618 85.4945 67.0994 84.7486 65.9459L79.1159 57.2383C79.4125 54.967 79.5644 52.6512 79.5644 50.3116C79.5644 44.7355 78.7267 39.3455 77.0746 34.2917C75.4812 29.4176 73.213 25.0934 70.3331 21.4394C69.8713 20.8535 69.1301 20.8535 68.6683 21.4394C65.7884 25.0932 63.5202 29.4174 61.9268 34.2917C60.2747 39.3457 59.437 44.7355 59.437 50.3116C59.437 52.6476 59.5884 54.9599 59.884 57.2277L54.2525 65.9459ZM55.4688 72.207V70.0635C55.4688 69.2758 55.6842 68.5088 56.0755 67.9037L60.5229 61.0263C60.9673 63.1686 61.5449 65.2579 62.253 67.2742L55.4688 72.207ZM65.9474 76.565L66.6222 73.0861H72.3785L73.0534 76.565H65.9474ZM82.9251 67.9037C83.3163 68.5088 83.5318 69.2758 83.5318 70.0635V72.207L76.7476 67.2739C77.4555 65.2577 78.0333 63.1686 78.4777 61.0261L82.9251 67.9037ZM69.5003 24.7222C71.4929 27.4824 73.1363 30.6473 74.3853 34.0742H64.6153C65.8643 30.6473 67.5077 27.4824 69.5003 24.7222ZM63.6265 37.1321H75.3739C76.5603 41.3002 77.1909 45.7689 77.1909 50.3114C77.1909 57.3425 75.723 64.1406 72.9396 70.0278H66.0608C63.2774 64.1406 61.8095 57.3425 61.8095 50.3114C61.8095 45.7689 62.4403 41.3005 63.6265 37.1321Z" fill="#202020"/>
<path d="M74.4908 48.6819C74.4908 45.1353 72.2519 42.25 69.4998 42.25C66.7477 42.25 64.5088 45.1355 64.5088 48.6819C64.5088 52.2283 66.7477 55.1138 69.4998 55.1138C72.2519 55.1138 74.4908 52.2285 74.4908 48.6819ZM66.8818 48.6819C66.8818 46.8215 68.0562 45.3081 69.4998 45.3081C70.9434 45.3081 72.1177 46.8217 72.1177 48.6819C72.1177 50.5421 70.9434 52.0556 69.4998 52.0556C68.0562 52.0556 66.8818 50.5423 66.8818 48.6819Z" fill="#202020"/>
<path d="M74.4908 48.6819C74.4908 45.1353 72.2519 42.25 69.4998 42.25C66.7477 42.25 64.5088 45.1355 64.5088 48.6819C64.5088 52.2283 66.7477 55.1138 69.4998 55.1138C72.2519 55.1138 74.4908 52.2285 74.4908 48.6819ZM66.8818 48.6819C66.8818 46.8215 68.0562 45.3081 69.4998 45.3081C70.9434 45.3081 72.1177 46.8217 72.1177 48.6819C72.1177 50.5421 70.9434 52.0556 69.4998 52.0556C68.0562 52.0556 66.8818 50.5423 66.8818 48.6819Z" fill="#202020"/>
<defs>
<linearGradient id="paint0_linear" x1="114.625" y1="19.25" x2="27.125" y2="122.5" gradientUnits="userSpaceOnUse">
<stop stop-color="#6F57F9"/>
<stop offset="1" stop-color="#303030" stop-opacity="0"/>
</linearGradient>
</defs>
</svg>
